<?xml version="1.0" encoding="UTF-8" standalone="no"?>
<!-- Created with Inkscape (http://www.inkscape.org/) -->

<svg
   xmlns:dc="http://purl.org/dc/elements/1.1/"
   xmlns:cc="http://creativecommons.org/ns#"
   xmlns:rdf="http://www.w3.org/1999/02/22-rdf-syntax-ns#"
   xmlns:svg="http://www.w3.org/2000/svg"
   xmlns="http://www.w3.org/2000/svg"
   version="1.1"
   width="55"
   height="55"
   viewBox="0 0 55 55"
   id="svg2"
   xml:space="preserve"><metadata
     id="metadata15"><rdf:RDF><cc:Work
         rdf:about=""><dc:format>image/svg+xml</dc:format><dc:type
           rdf:resource="http://purl.org/dc/dcmitype/StillImage" /><dc:title></dc:title></cc:Work></rdf:RDF></metadata><defs
     id="defs13" /><rect
     width="55"
     height="55"
     x="0"
     y="0"
     id="rect3269"
     style="fill:#ffd200;fill-opacity:1;fill-rule:nonzero;stroke:none" /><g
     transform="matrix(0.46157012,0,0,0.46157012,43.078875,16.000022)"
     id="g3903"
     style="fill:#ff0000;fill-opacity:1;stroke:#ff0000;stroke-opacity:1"><path
       d="M -28.665254,44.745763 -48.831801,30.245922 c -1.975494,-1.420389 -7.180418,-3.532684 -11.170345,-3.717817 l -19.235142,-0.892512 2.392995,2.728225 13.363281,1.000589 c 8.686599,0.650418 23.419061,18.200761 23.419061,18.200761 0,0 7.001532,1.227942 11.396697,-2.819405 z"
       id="path3091"
       style="fill:#ff0000;fill-opacity:1;stroke:#ff0000;stroke-width:1px;stroke-linecap:butt;stroke-linejoin:miter;stroke-opacity:1" /><path
       d="m -11.652542,12.584746 c 0,0 3.8296884,4.313276 4.9962458,4.086838 1.166576,-0.226442 10.8825305,-0.387798 13.5625396,-0.170564 0.033844,-0.815892 1.1848365,1.846746 0.7844346,2.376099 -0.5643111,0.74605 -2.5700557,-1.358972 -3.3935844,-0.915307 -0.8569285,0.461658 -2.1180359,1.177226 -0.971895,3.245815 0.3367456,0.607768 1.3453533,0.761254 2.0349709,0.676358 0.7108416,-0.08751 0.4560241,-1.128981 1.1196637,-1.398306 1.153956,-0.468311 4.9227618,0.0228 4.9227618,0.0228 l 3.092148,3.689121 -2.802509,-0.108077 c 0,0 -3.447387,-0.05583 -5.1271188,0.295538 -1.6831703,0.352083 -4.4676576,1.716638 -4.4676576,1.716638 0,0 -2.42701944,-0.560642 -3.2627118,-1.398305 C -3.0682339,22.795927 -6.3672674,20.73514 -9.3676244,18.598481 -11.29527,17.225737 -11.652542,12.58475 -11.652542,12.58475 z"
       id="path3097"
       style="fill:#ff0000;fill-opacity:1;stroke:#ff0000;stroke-width:1px;stroke-linecap:butt;stroke-linejoin:miter;stroke-opacity:1" /><path
       d="m -11.277309,37.52833 -29.73913,-17.588895 c -2.765408,-1.635571 -12.120207,-5.909548 -16.088079,-6.005574 l -24.894051,-0.602458 1.966312,2.467623 15.224594,0.396244 c 9.645787,0.251047 37.817538,25.023172 37.817538,25.023172 0,0 9.751797,1.362312 15.712816,-3.690112 z"
       id="path3091-9"
       style="fill:#ff0000;fill-opacity:1;stroke:#ff0000;stroke-width:1;stroke-linecap:butt;stroke-linejoin:miter;stroke-miterlimit:4;stroke-opacity:1;stroke-dasharray:none" /><path
       d="M -0.0314141,28.498529 C -10.513004,21.384761 -20.046439,12.97313 -31.476185,7.1572244 -37.092742,4.2992985 -46.991956,2.0641054 -55.239647,2.0897527 l -25.661589,0.079798 1.96631,2.467623 23.496953,0.6520901 c 12.102426,0.3358679 43.78728,28.5197352 43.78728,28.5197352 0,0 5.6582599,-0.258046 11.6192789,-5.31047 z"
       id="path3091-9-9"
       style="fill:#ff0000;fill-opacity:1;stroke:#ff0000;stroke-width:1;stroke-linecap:butt;stroke-linejoin:miter;stroke-miterlimit:4;stroke-opacity:1;stroke-dasharray:none" /></g></svg>